<mxfile host="app.diagrams.net" agent="Mozilla/5.0 (Windows NT 10.0; Win64; x64) AppleWebKit/537.36 (KHTML, like Gecko) Chrome/130.0.0.0 Safari/537.36" version="24.8.4">
  <diagram id="AXRmiALY-gt5mDKcBv-0" name="Page-1">
    <mxGraphModel dx="2388" dy="1500" grid="1" gridSize="10" guides="1" tooltips="1" connect="1" arrows="1" fold="1" page="1" pageScale="1" pageWidth="1654" pageHeight="1169" math="0" shadow="0">
      <root>
        <mxCell id="0" />
        <mxCell id="1" parent="0" />
        <mxCell id="f_n-qK1OUHwK1RlmeG7I-10" style="edgeStyle=orthogonalEdgeStyle;rounded=0;orthogonalLoop=1;jettySize=auto;html=1;entryX=0.5;entryY=0;entryDx=0;entryDy=0;startArrow=ERmandOne;startFill=0;endArrow=ERoneToMany;endFill=0;exitX=1;exitY=0.5;exitDx=0;exitDy=0;" parent="1" source="ki9BYNhn9SuxBnhGX2t7-7" target="f_n-qK1OUHwK1RlmeG7I-5" edge="1">
          <mxGeometry relative="1" as="geometry">
            <Array as="points">
              <mxPoint x="877" y="360" />
              <mxPoint x="877" y="460" />
              <mxPoint x="960" y="460" />
            </Array>
          </mxGeometry>
        </mxCell>
        <mxCell id="f_n-qK1OUHwK1RlmeG7I-11" style="edgeStyle=orthogonalEdgeStyle;rounded=0;orthogonalLoop=1;jettySize=auto;html=1;startArrow=ERmandOne;startFill=0;endArrow=ERoneToMany;endFill=0;exitX=0.293;exitY=1.005;exitDx=0;exitDy=0;exitPerimeter=0;" parent="1" source="ki9BYNhn9SuxBnhGX2t7-7" target="f_n-qK1OUHwK1RlmeG7I-9" edge="1">
          <mxGeometry relative="1" as="geometry">
            <Array as="points">
              <mxPoint x="670.75" y="725" />
              <mxPoint x="481.75" y="725" />
            </Array>
          </mxGeometry>
        </mxCell>
        <mxCell id="ki9BYNhn9SuxBnhGX2t7-7" value="&lt;div style=&quot;box-sizing:border-box;width:100%;background:#e4e4e4;padding:2px;&quot;&gt;&lt;b&gt;Customer&lt;/b&gt;&lt;br&gt;&lt;/div&gt;&lt;table style=&quot;width:100%;font-size:1em;&quot; cellspacing=&quot;0&quot; cellpadding=&quot;2&quot;&gt;&lt;tbody&gt;&lt;tr&gt;&lt;td&gt;&lt;u&gt;PK&lt;/u&gt;&lt;/td&gt;&lt;td&gt;&lt;u&gt;CUSTOMER_ID&lt;/u&gt;&lt;/td&gt;&lt;td&gt;&lt;u&gt;int&lt;br&gt;&lt;/u&gt;&lt;/td&gt;&lt;td&gt;&lt;u&gt;not null&lt;/u&gt;&lt;br&gt;&lt;/td&gt;&lt;/tr&gt;&lt;tr&gt;&lt;td&gt;&lt;br&gt;&lt;/td&gt;&lt;td&gt;USERNAME&lt;br&gt;&lt;/td&gt;&lt;td&gt;varchar(50)&lt;br&gt;&lt;/td&gt;&lt;td&gt;not null&lt;br&gt;&lt;/td&gt;&lt;/tr&gt;&lt;tr&gt;&lt;td&gt;&lt;br&gt;&lt;/td&gt;&lt;td&gt;PASSWORD&lt;/td&gt;&lt;td&gt;varchar(255)&lt;/td&gt;&lt;td&gt;not null&lt;br&gt;&lt;/td&gt;&lt;/tr&gt;&lt;tr&gt;&lt;td&gt;&lt;br&gt;&lt;/td&gt;&lt;td&gt;FIRST_NAME&lt;/td&gt;&lt;td&gt;varchar(50)&lt;br&gt;&lt;/td&gt;&lt;td&gt;not null&lt;br&gt;&lt;/td&gt;&lt;/tr&gt;&lt;tr&gt;&lt;td&gt;&lt;br&gt;&lt;/td&gt;&lt;td&gt;LAST_NAME&lt;br&gt;&lt;/td&gt;&lt;td&gt;varchar(50)&lt;br&gt;&lt;/td&gt;&lt;td&gt;not null&lt;br&gt;&lt;/td&gt;&lt;/tr&gt;&lt;tr&gt;&lt;td&gt;&lt;br&gt;&lt;/td&gt;&lt;td&gt;EMAIL&lt;/td&gt;&lt;td&gt;varchar(100)&lt;/td&gt;&lt;td&gt;not null&lt;/td&gt;&lt;/tr&gt;&lt;tr&gt;&lt;td&gt;&lt;br&gt;&lt;/td&gt;&lt;td&gt;PHONE&lt;/td&gt;&lt;td&gt;varchar(15)&lt;/td&gt;&lt;td&gt;not null&lt;span style=&quot;white-space: pre;&quot;&gt;&#x9;&lt;/span&gt;&lt;span style=&quot;white-space: pre;&quot;&gt;&#x9;&lt;/span&gt;&lt;/td&gt;&lt;/tr&gt;&lt;tr&gt;&lt;td&gt;FK&lt;/td&gt;&lt;td&gt;ADDRESS_ID&lt;/td&gt;&lt;td&gt;int&lt;/td&gt;&lt;td&gt;not null&lt;/td&gt;&lt;/tr&gt;&lt;tr&gt;&lt;td&gt;&lt;br&gt;&lt;/td&gt;&lt;td&gt;CREATED_AT&lt;/td&gt;&lt;td&gt;datetime&lt;/td&gt;&lt;td&gt;GETDATE()&lt;/td&gt;&lt;/tr&gt;&lt;/tbody&gt;&lt;/table&gt;" style="verticalAlign=top;align=left;overflow=fill;html=1;labelBorderColor=default;" parent="1" vertex="1">
          <mxGeometry x="594.25" y="265" width="260" height="190" as="geometry" />
        </mxCell>
        <mxCell id="f_n-qK1OUHwK1RlmeG7I-13" style="edgeStyle=orthogonalEdgeStyle;rounded=0;orthogonalLoop=1;jettySize=auto;html=1;entryX=1;entryY=0.35;entryDx=0;entryDy=0;entryPerimeter=0;endArrow=ERoneToMany;endFill=0;startArrow=ERmandOne;startFill=0;" parent="1" source="ki9BYNhn9SuxBnhGX2t7-8" target="f_n-qK1OUHwK1RlmeG7I-9" edge="1">
          <mxGeometry relative="1" as="geometry">
            <mxPoint x="640" y="800" as="targetPoint" />
            <Array as="points">
              <mxPoint x="1260" y="350" />
              <mxPoint x="1260" y="740" />
              <mxPoint x="660" y="740" />
              <mxPoint x="660" y="801" />
            </Array>
          </mxGeometry>
        </mxCell>
        <mxCell id="ki9BYNhn9SuxBnhGX2t7-8" value="&lt;div style=&quot;box-sizing:border-box;width:100%;background:#e4e4e4;padding:2px;&quot;&gt;&lt;b&gt;Product&lt;/b&gt;&lt;br&gt;&lt;/div&gt;&lt;table style=&quot;width:100%;font-size:1em;&quot; cellspacing=&quot;0&quot; cellpadding=&quot;2&quot;&gt;&lt;tbody&gt;&lt;tr&gt;&lt;td&gt;&lt;u&gt;PK&lt;/u&gt;&lt;/td&gt;&lt;td&gt;&lt;u&gt;PRODUCT_ID&lt;/u&gt;&lt;/td&gt;&lt;td&gt;&lt;u&gt;int&lt;br&gt;&lt;/u&gt;&lt;/td&gt;&lt;td&gt;&lt;u&gt;not null&lt;/u&gt;&lt;br&gt;&lt;/td&gt;&lt;/tr&gt;&lt;tr&gt;&lt;td&gt;&lt;br&gt;&lt;/td&gt;&lt;td&gt;PRODUCT_NAME&lt;/td&gt;&lt;td&gt;varchar(50)&lt;br&gt;&lt;/td&gt;&lt;td&gt;not null&lt;br&gt;&lt;/td&gt;&lt;/tr&gt;&lt;tr&gt;&lt;td&gt;&lt;br&gt;&lt;/td&gt;&lt;td&gt;DESCRIPTION&lt;br&gt;&lt;/td&gt;&lt;td&gt;text&lt;/td&gt;&lt;td&gt;not null&lt;br&gt;&lt;/td&gt;&lt;/tr&gt;&lt;tr&gt;&lt;td&gt;&lt;br&gt;&lt;/td&gt;&lt;td&gt;PRICE&lt;br&gt;&lt;/td&gt;&lt;td&gt;decimal(10,2)&lt;br&gt;&lt;/td&gt;&lt;td&gt;not null&lt;br&gt;&lt;/td&gt;&lt;/tr&gt;&lt;tr&gt;&lt;td&gt;&lt;br&gt;&lt;/td&gt;&lt;td&gt;STOCK&lt;br&gt;&lt;/td&gt;&lt;td&gt;int&lt;br&gt;&lt;/td&gt;&lt;td&gt;not null&lt;br&gt;&lt;/td&gt;&lt;/tr&gt;&lt;tr&gt;&lt;td&gt;&lt;br&gt;&lt;/td&gt;&lt;td&gt;CATEGORY_ID&lt;/td&gt;&lt;td&gt;int&lt;/td&gt;&lt;td&gt;not null&lt;/td&gt;&lt;/tr&gt;&lt;tr&gt;&lt;td&gt;&lt;br&gt;&lt;/td&gt;&lt;td&gt;CREATED_AT&lt;/td&gt;&lt;td&gt;datetime&lt;/td&gt;&lt;td&gt;GETDATE()&lt;/td&gt;&lt;/tr&gt;&lt;/tbody&gt;&lt;/table&gt;" style="verticalAlign=top;align=left;overflow=fill;html=1;labelBorderColor=default;" parent="1" vertex="1">
          <mxGeometry x="916.75" y="265" width="305" height="170" as="geometry" />
        </mxCell>
        <mxCell id="ki9BYNhn9SuxBnhGX2t7-12" value="&lt;div style=&quot;box-sizing:border-box;width:100%;background:#e4e4e4;padding:2px;&quot;&gt;&lt;b&gt;Address&lt;/b&gt;&lt;br&gt;&lt;/div&gt;&lt;table style=&quot;width:100%;font-size:1em;&quot; cellspacing=&quot;0&quot; cellpadding=&quot;2&quot;&gt;&lt;tbody&gt;&lt;tr&gt;&lt;td&gt;&lt;u&gt;PK&lt;/u&gt;&lt;/td&gt;&lt;td&gt;&lt;u&gt;ADDRESS_ID&lt;/u&gt;&lt;/td&gt;&lt;td&gt;&lt;u&gt;int&lt;br&gt;&lt;/u&gt;&lt;/td&gt;&lt;td&gt;&lt;u&gt;not null&lt;/u&gt;&lt;br&gt;&lt;/td&gt;&lt;/tr&gt;&lt;tr&gt;&lt;td&gt;&lt;br&gt;&lt;/td&gt;&lt;td&gt;STREET&lt;br&gt;&lt;/td&gt;&lt;td&gt;varchar(100)&lt;/td&gt;&lt;td&gt;not null&lt;br&gt;&lt;/td&gt;&lt;/tr&gt;&lt;tr&gt;&lt;td&gt;&lt;br&gt;&lt;/td&gt;&lt;td&gt;CITY&lt;br&gt;&lt;/td&gt;&lt;td&gt;varchar(50)&lt;br&gt;&lt;/td&gt;&lt;td&gt;not null&lt;br&gt;&lt;/td&gt;&lt;/tr&gt;&lt;tr&gt;&lt;td&gt;&lt;br&gt;&lt;/td&gt;&lt;td&gt;STATE&lt;br&gt;&lt;/td&gt;&lt;td&gt;varchar(50)&lt;br&gt;&lt;/td&gt;&lt;td&gt;not null&lt;br&gt;&lt;/td&gt;&lt;/tr&gt;&lt;tr&gt;&lt;td&gt;&lt;br&gt;&lt;/td&gt;&lt;td&gt;ZIP_CODE&lt;/td&gt;&lt;td&gt;varchar(10)&lt;/td&gt;&lt;td&gt;&lt;br&gt;&lt;/td&gt;&lt;/tr&gt;&lt;tr&gt;&lt;td&gt;&lt;br&gt;&lt;/td&gt;&lt;td&gt;COUNTRY&lt;/td&gt;&lt;td&gt;varchar(50)&lt;/td&gt;&lt;td&gt;not null&lt;/td&gt;&lt;/tr&gt;&lt;/tbody&gt;&lt;/table&gt;" style="verticalAlign=top;align=left;overflow=fill;html=1;labelBorderColor=default;" parent="1" vertex="1">
          <mxGeometry x="276.75" y="265" width="235" height="130" as="geometry" />
        </mxCell>
        <mxCell id="f_n-qK1OUHwK1RlmeG7I-1" style="edgeStyle=orthogonalEdgeStyle;rounded=0;orthogonalLoop=1;jettySize=auto;html=1;entryX=-0.001;entryY=0.164;entryDx=0;entryDy=0;entryPerimeter=0;startArrow=ERmandOne;startFill=0;endArrow=ERoneToMany;endFill=0;exitX=0.998;exitY=0.469;exitDx=0;exitDy=0;exitPerimeter=0;" parent="1" source="ki9BYNhn9SuxBnhGX2t7-12" target="ki9BYNhn9SuxBnhGX2t7-7" edge="1">
          <mxGeometry relative="1" as="geometry">
            <mxPoint x="516.75" y="325" as="sourcePoint" />
          </mxGeometry>
        </mxCell>
        <mxCell id="f_n-qK1OUHwK1RlmeG7I-3" value="&lt;div style=&quot;box-sizing:border-box;width:100%;background:#e4e4e4;padding:2px;&quot;&gt;&lt;b&gt;Category&lt;/b&gt;&lt;/div&gt;&lt;table style=&quot;width:100%;font-size:1em;&quot; cellspacing=&quot;0&quot; cellpadding=&quot;2&quot;&gt;&lt;tbody&gt;&lt;tr&gt;&lt;td&gt;&lt;u&gt;PK&lt;/u&gt;&lt;/td&gt;&lt;td&gt;&lt;u&gt;CATEGORY_ID&lt;/u&gt;&lt;/td&gt;&lt;td&gt;&lt;u&gt;int&lt;br&gt;&lt;/u&gt;&lt;/td&gt;&lt;td&gt;&lt;u&gt;not null&lt;/u&gt;&lt;br&gt;&lt;/td&gt;&lt;/tr&gt;&lt;tr&gt;&lt;td&gt;&lt;br&gt;&lt;/td&gt;&lt;td&gt;CATEGORY_NAME&lt;/td&gt;&lt;td&gt;varchar(50)&lt;/td&gt;&lt;td&gt;not null&lt;br&gt;&lt;/td&gt;&lt;/tr&gt;&lt;tr&gt;&lt;td&gt;&lt;br&gt;&lt;/td&gt;&lt;td&gt;DESCRIPTION&lt;/td&gt;&lt;td&gt;text&lt;br&gt;&lt;/td&gt;&lt;td&gt;not null&lt;br&gt;&lt;/td&gt;&lt;/tr&gt;&lt;/tbody&gt;&lt;/table&gt;" style="verticalAlign=top;align=left;overflow=fill;html=1;labelBorderColor=default;" parent="1" vertex="1">
          <mxGeometry x="1306.75" y="265" width="240" height="80" as="geometry" />
        </mxCell>
        <mxCell id="f_n-qK1OUHwK1RlmeG7I-4" style="edgeStyle=orthogonalEdgeStyle;rounded=0;orthogonalLoop=1;jettySize=auto;html=1;entryX=0.997;entryY=0.325;entryDx=0;entryDy=0;entryPerimeter=0;endArrow=ERoneToMany;endFill=0;startArrow=ERmandOne;startFill=0;" parent="1" source="f_n-qK1OUHwK1RlmeG7I-3" target="ki9BYNhn9SuxBnhGX2t7-8" edge="1">
          <mxGeometry relative="1" as="geometry" />
        </mxCell>
        <mxCell id="f_n-qK1OUHwK1RlmeG7I-5" value="&lt;div style=&quot;box-sizing:border-box;width:100%;background:#e4e4e4;padding:2px;&quot;&gt;&lt;b&gt;Order_Header&lt;/b&gt;&lt;br&gt;&lt;/div&gt;&lt;table style=&quot;width:100%;font-size:1em;&quot; cellspacing=&quot;0&quot; cellpadding=&quot;2&quot;&gt;&lt;tbody&gt;&lt;tr&gt;&lt;td&gt;&lt;u&gt;PK&lt;/u&gt;&lt;/td&gt;&lt;td&gt;&lt;u&gt;ORDER_ID&lt;/u&gt;&lt;/td&gt;&lt;td&gt;&lt;u&gt;int&lt;br&gt;&lt;/u&gt;&lt;/td&gt;&lt;td&gt;&lt;u&gt;not null&lt;/u&gt;&lt;br&gt;&lt;/td&gt;&lt;/tr&gt;&lt;tr&gt;&lt;td&gt;FK&lt;/td&gt;&lt;td&gt;CUSTOMER_ID&lt;/td&gt;&lt;td&gt;int&lt;/td&gt;&lt;td&gt;not null&lt;br&gt;&lt;/td&gt;&lt;/tr&gt;&lt;tr&gt;&lt;td&gt;&lt;br&gt;&lt;/td&gt;&lt;td&gt;ORDER_DATE&lt;/td&gt;&lt;td&gt;datetime&lt;/td&gt;&lt;td&gt;not null&lt;br&gt;&lt;/td&gt;&lt;/tr&gt;&lt;tr&gt;&lt;td&gt;&lt;br&gt;&lt;/td&gt;&lt;td&gt;STATUS&lt;br&gt;&lt;/td&gt;&lt;td&gt;varchar(20)&lt;br&gt;&lt;/td&gt;&lt;td&gt;check in (&#39;Pending&#39;, &#39;Shipped&#39;, &#39;Delivered&#39;, &#39;Canceled&#39;)&lt;/td&gt;&lt;/tr&gt;&lt;tr&gt;&lt;td&gt;&lt;br&gt;&lt;/td&gt;&lt;td&gt;TOTAL_AMOUNT&lt;br&gt;&lt;/td&gt;&lt;td&gt;decimal(10,2)&lt;br&gt;&lt;/td&gt;&lt;td&gt;not null&lt;br&gt;&lt;/td&gt;&lt;/tr&gt;&lt;/tbody&gt;&lt;/table&gt;" style="verticalAlign=top;align=left;overflow=fill;html=1;labelBorderColor=default;" parent="1" vertex="1">
          <mxGeometry x="720" y="480" width="480" height="119.5" as="geometry" />
        </mxCell>
        <mxCell id="f_n-qK1OUHwK1RlmeG7I-6" value="&lt;div style=&quot;box-sizing:border-box;width:100%;background:#e4e4e4;padding:2px;&quot;&gt;&lt;b&gt;Order_Item&lt;/b&gt;&lt;br&gt;&lt;/div&gt;&lt;table style=&quot;width:100%;font-size:1em;&quot; cellspacing=&quot;0&quot; cellpadding=&quot;2&quot;&gt;&lt;tbody&gt;&lt;tr&gt;&lt;td&gt;&lt;u&gt;PK&lt;/u&gt;&lt;/td&gt;&lt;td&gt;&lt;u&gt;ORDER_ITEM_ID&lt;/u&gt;&lt;/td&gt;&lt;td&gt;&lt;u&gt;int&lt;br&gt;&lt;/u&gt;&lt;/td&gt;&lt;td&gt;&lt;u&gt;not null&lt;/u&gt;&lt;br&gt;&lt;/td&gt;&lt;/tr&gt;&lt;tr&gt;&lt;td&gt;FK&lt;/td&gt;&lt;td&gt;ORDER_ID&lt;/td&gt;&lt;td&gt;int&lt;/td&gt;&lt;td&gt;not null&lt;br&gt;&lt;/td&gt;&lt;/tr&gt;&lt;tr&gt;&lt;td&gt;FK&lt;/td&gt;&lt;td&gt;PRODUCT_ID&lt;br&gt;&lt;/td&gt;&lt;td&gt;int&lt;br&gt;&lt;/td&gt;&lt;td&gt;not null&lt;br&gt;&lt;/td&gt;&lt;/tr&gt;&lt;tr&gt;&lt;td&gt;&lt;br&gt;&lt;/td&gt;&lt;td&gt;QUANTITY&lt;br&gt;&lt;/td&gt;&lt;td&gt;int&lt;br&gt;&lt;/td&gt;&lt;td&gt;not null&lt;br&gt;&lt;/td&gt;&lt;/tr&gt;&lt;tr&gt;&lt;td&gt;&lt;br&gt;&lt;/td&gt;&lt;td&gt;UNIT_PRICE&lt;br&gt;&lt;/td&gt;&lt;td&gt;decimal(10,2)&lt;br&gt;&lt;/td&gt;&lt;td&gt;not null&lt;br&gt;&lt;/td&gt;&lt;/tr&gt;&lt;tr&gt;&lt;td&gt;&lt;br&gt;&lt;/td&gt;&lt;td&gt;TOTAL_PRICE&lt;/td&gt;&lt;td&gt;decimal(10,2)&lt;/td&gt;&lt;td&gt;not null&lt;/td&gt;&lt;/tr&gt;&lt;/tbody&gt;&lt;/table&gt;" style="verticalAlign=top;align=left;overflow=fill;html=1;labelBorderColor=default;" parent="1" vertex="1">
          <mxGeometry x="746.75" y="775" width="290" height="130" as="geometry" />
        </mxCell>
        <mxCell id="f_n-qK1OUHwK1RlmeG7I-8" value="&lt;div style=&quot;box-sizing:border-box;width:100%;background:#e4e4e4;padding:2px;&quot;&gt;&lt;b&gt;Payment&lt;/b&gt;&lt;/div&gt;&lt;table style=&quot;width:100%;font-size:1em;&quot; cellspacing=&quot;0&quot; cellpadding=&quot;2&quot;&gt;&lt;tbody&gt;&lt;tr&gt;&lt;td&gt;&lt;u&gt;PK&lt;/u&gt;&lt;/td&gt;&lt;td&gt;&lt;u&gt;PAYMENT_ID&lt;/u&gt;&lt;/td&gt;&lt;td&gt;&lt;u&gt;int&lt;/u&gt;&lt;br&gt;&lt;/td&gt;&lt;td&gt;&lt;u&gt;not null&lt;/u&gt;&lt;/td&gt;&lt;/tr&gt;&lt;tr&gt;&lt;td&gt;FK&lt;/td&gt;&lt;td&gt;ORDER_ID &lt;br&gt;&lt;/td&gt;&lt;td&gt;date&lt;br&gt;&lt;/td&gt;&lt;td&gt;not null&lt;br&gt;&lt;/td&gt;&lt;/tr&gt;&lt;tr&gt;&lt;td&gt;&lt;br&gt;&lt;/td&gt;&lt;td&gt;PAYMENT_DATE &lt;br&gt;&lt;/td&gt;&lt;td&gt;time&lt;br&gt;&lt;/td&gt;&lt;td&gt;not null&lt;br&gt;&lt;/td&gt;&lt;/tr&gt;&lt;tr&gt;&lt;td&gt;&lt;br&gt;&lt;/td&gt;&lt;td&gt;PAYMENT_METHOD &lt;br&gt;&lt;/td&gt;&lt;td&gt;time&lt;br&gt;&lt;/td&gt;&lt;td&gt;not null&lt;br&gt;&lt;/td&gt;&lt;/tr&gt;&lt;tr&gt;&lt;td&gt;&lt;br&gt;&lt;/td&gt;&lt;td&gt;AMOUNT &lt;br&gt;&lt;/td&gt;&lt;td&gt;int&lt;br&gt;&lt;/td&gt;&lt;td&gt;not null&lt;br&gt;&lt;/td&gt;&lt;/tr&gt;&lt;/tbody&gt;&lt;/table&gt;" style="verticalAlign=top;align=left;overflow=fill;html=1;labelBorderColor=default;" parent="1" vertex="1">
          <mxGeometry x="108" y="505" width="390" height="120" as="geometry" />
        </mxCell>
        <mxCell id="f_n-qK1OUHwK1RlmeG7I-9" value="&lt;div style=&quot;box-sizing:border-box;width:100%;background:#e4e4e4;padding:2px;&quot;&gt;&lt;b&gt;Product_Review&lt;/b&gt;&lt;/div&gt;&lt;table style=&quot;width:100%;font-size:1em;&quot; cellspacing=&quot;0&quot; cellpadding=&quot;2&quot;&gt;&lt;tbody&gt;&lt;tr&gt;&lt;td&gt;&lt;u&gt;PK&lt;/u&gt;&lt;/td&gt;&lt;td&gt;&lt;u&gt;REVIEW_ID&lt;/u&gt;&lt;/td&gt;&lt;td&gt;&lt;u&gt;int&lt;br&gt;&lt;/u&gt;&lt;/td&gt;&lt;td&gt;&lt;u&gt;not null&lt;/u&gt;&lt;br&gt;&lt;/td&gt;&lt;/tr&gt;&lt;tr&gt;&lt;td&gt;FK&lt;/td&gt;&lt;td&gt;PRODUCT_ID&lt;/td&gt;&lt;td&gt;int&lt;/td&gt;&lt;td&gt;not null&lt;br&gt;&lt;/td&gt;&lt;/tr&gt;&lt;tr&gt;&lt;td&gt;FK&lt;/td&gt;&lt;td&gt;CUSTOMER_ID&lt;br&gt;&lt;/td&gt;&lt;td&gt;int&lt;br&gt;&lt;/td&gt;&lt;td&gt;not null&lt;br&gt;&lt;/td&gt;&lt;/tr&gt;&lt;tr&gt;&lt;td&gt;&lt;br&gt;&lt;/td&gt;&lt;td&gt;RATING&lt;br&gt;&lt;/td&gt;&lt;td&gt;int&lt;br&gt;&lt;/td&gt;&lt;td&gt;1-5&lt;/td&gt;&lt;/tr&gt;&lt;tr&gt;&lt;td&gt;&lt;br&gt;&lt;/td&gt;&lt;td&gt;REVIEW_TEXT&lt;br&gt;&lt;/td&gt;&lt;td&gt;text&lt;br&gt;&lt;/td&gt;&lt;td&gt;not null&lt;br&gt;&lt;/td&gt;&lt;/tr&gt;&lt;tr&gt;&lt;td&gt;&lt;br&gt;&lt;/td&gt;&lt;td&gt;REVIEW_DATE&lt;/td&gt;&lt;td&gt;datetime&lt;/td&gt;&lt;td&gt;not null&lt;/td&gt;&lt;/tr&gt;&lt;/tbody&gt;&lt;/table&gt;" style="verticalAlign=top;align=left;overflow=fill;html=1;labelBorderColor=default;" parent="1" vertex="1">
          <mxGeometry x="336.75" y="755" width="290" height="130" as="geometry" />
        </mxCell>
        <mxCell id="f_n-qK1OUHwK1RlmeG7I-12" style="edgeStyle=orthogonalEdgeStyle;rounded=0;orthogonalLoop=1;jettySize=auto;html=1;entryX=1.006;entryY=0.632;entryDx=0;entryDy=0;entryPerimeter=0;endArrow=ERoneToMany;endFill=0;startArrow=ERmandOne;startFill=0;" parent="1" source="ki9BYNhn9SuxBnhGX2t7-8" target="f_n-qK1OUHwK1RlmeG7I-6" edge="1">
          <mxGeometry relative="1" as="geometry">
            <Array as="points">
              <mxPoint x="1367" y="385" />
              <mxPoint x="1367" y="857" />
            </Array>
          </mxGeometry>
        </mxCell>
        <mxCell id="f_n-qK1OUHwK1RlmeG7I-14" style="edgeStyle=orthogonalEdgeStyle;rounded=0;orthogonalLoop=1;jettySize=auto;html=1;entryX=0.001;entryY=0.611;entryDx=0;entryDy=0;entryPerimeter=0;startArrow=ERoneToMany;startFill=0;endArrow=ERmandOne;endFill=0;" parent="1" source="f_n-qK1OUHwK1RlmeG7I-8" target="f_n-qK1OUHwK1RlmeG7I-5" edge="1">
          <mxGeometry relative="1" as="geometry" />
        </mxCell>
      </root>
    </mxGraphModel>
  </diagram>
</mxfile>
